<?xml version="1.0" encoding="UTF-8"?>
<svg width="32px" height="32px" viewBox="0 0 32 32" version="1.1" xmlns="http://www.w3.org/2000/svg" xmlns:xlink="http://www.w3.org/1999/xlink">
    <title>q</title>
    <defs>
        <path d="M16.54,3.50572903 C16.5400496,3.20583519 16.2998443,2.96118164 16,2.95572903 C15.8473333,2.94459598 15.6969333,2.99758911 15.5849661,3.10196534 C15.4729988,3.20634157 15.4095946,3.3526575 15.4099981,3.50572903 L15.4099981,10.505729 L16.5,10.505729 L16.54,3.50572903 Z M24.69,10.505729 L16.54,10.505729 L16.54,19.955729 L19.92,15.725729 C20.0101161,15.6142528 20.1408578,15.5431812 20.2834154,15.5281752 C20.425973,15.5131691 20.5686475,15.5554601 20.68,15.645729 C20.7953427,15.7327323 20.8701683,15.8630519 20.8871586,16.006526 C20.904149,16.1500002 20.8618314,16.294192 20.77,16.405729 L16.41,21.855729 C16.3746922,21.8943209 16.3343262,21.9279592 16.29,21.955729 L16.23,21.955729 C16.1610051,21.9876999 16.0860358,22.0047384 16.01,22.005729 C15.9307533,22.0046793 15.8525303,21.9876743 15.78,21.955729 C15.7338169,21.9306058 15.6930395,21.8966246 15.66,21.855729 L11.32,16.415729 C11.1985297,16.2656775 11.166338,16.0622205 11.2355514,15.8819984 C11.3047647,15.7017762 11.4648678,15.5721689 11.6555514,15.5419983 C11.846235,15.5118278 12.0385297,15.5856775 12.16,15.735729 L15.41,19.965729 L15.41,10.505729 L7.3,10.505729 C7.00176624,10.505729 6.76,10.7474953 6.76,11.045729 L6.76,28.505729 C6.76,28.8039628 7.00176624,29.045729 7.3,29.045729 L24.69,29.045729 C24.9898938,29.045729 25.2345474,28.8055733 25.24,28.505729 L25.24,11.055729 C25.24,10.7519724 24.9937566,10.505729 24.69,10.505729 L24.69,10.505729 Z" id="path-1"></path>
    </defs>
    <g id="q" stroke="none" stroke-width="1" fill="none" fill-rule="evenodd">
        <mask id="mask-2" fill="white">
            <use xlink:href="#path-1"></use>
        </mask>
        <use id="downloadFilled" fill="#000000" fill-rule="nonzero" xlink:href="#path-1"></use>
        <g id="Color/Elements/Dark-Gray" mask="url(#mask-2)" fill="#3C4D54">
            <rect x="0" y="0" width="32" height="32"></rect>
        </g>
    </g>
</svg>