<?xml version="1.0" encoding="UTF-8"?>
<svg width="375px" height="389px" viewBox="0 0 375 389" version="1.1" xmlns="http://www.w3.org/2000/svg" xmlns:xlink="http://www.w3.org/1999/xlink">
    <title>Hero/Error/Simple</title>
    <defs>
        <linearGradient x1="50%" y1="-2.48949813e-15%" x2="50%" y2="100%" id="linearGradient-1">
            <stop stop-color="#222222" offset="0%"></stop>
            <stop stop-color="#222222" offset="100%"></stop>
        </linearGradient>
        <polygon id="path-2" points="0 0 71 0 71 70 0 70"></polygon>
        <linearGradient x1="50%" y1="0%" x2="50%" y2="100%" id="linearGradient-4">
            <stop stop-color="#BBBBBB" offset="0%"></stop>
            <stop stop-color="#AAAAAA" offset="100%"></stop>
        </linearGradient>
        <linearGradient x1="50%" y1="-2.48949813e-15%" x2="50%" y2="100%" id="linearGradient-5">
            <stop stop-color="#CCCCCC" offset="0%"></stop>
            <stop stop-color="#CCCCCC" offset="100%"></stop>
        </linearGradient>
        <circle id="path-6" cx="46.6470004" cy="46.6470004" r="46.6470004"></circle>
        <filter x="-16.4%" y="-16.4%" width="132.8%" height="132.8%" filterUnits="objectBoundingBox" id="filter-8">
            <feGaussianBlur stdDeviation="8.94600009" in="SourceGraphic"></feGaussianBlur>
        </filter>
        <linearGradient x1="50%" y1="0%" x2="50%" y2="100%" id="linearGradient-9">
            <stop stop-color="#CCCCCC" offset="0%"></stop>
            <stop stop-color="#CCCCCC" offset="100%"></stop>
        </linearGradient>
        <filter x="-12.1%" y="-12.1%" width="124.1%" height="124.1%" filterUnits="objectBoundingBox" id="filter-10">
            <feGaussianBlur stdDeviation="8.94600009" in="SourceGraphic"></feGaussianBlur>
        </filter>
        <linearGradient x1="0%" y1="0%" x2="50%" y2="74.4382679%" id="linearGradient-11">
            <stop stop-color="#FFFFFF" stop-opacity="0" offset="0%"></stop>
            <stop stop-color="#FFFFFF" offset="100%"></stop>
        </linearGradient>
        <circle id="path-12" cx="65.8170006" cy="65.8170006" r="65.8170006"></circle>
        <filter x="-15.9%" y="-15.9%" width="131.8%" height="131.8%" filterUnits="objectBoundingBox" id="filter-14">
            <feGaussianBlur stdDeviation="8.94600009" in="SourceGraphic"></feGaussianBlur>
        </filter>
        <linearGradient x1="50%" y1="0%" x2="50%" y2="100%" id="linearGradient-15">
            <stop stop-color="#CCCCCC" offset="0%"></stop>
            <stop stop-color="#CCCCCC" offset="100%"></stop>
        </linearGradient>
        <filter x="-18.2%" y="-17.8%" width="136.4%" height="135.7%" filterUnits="objectBoundingBox" id="filter-16">
            <feGaussianBlur stdDeviation="12.7800001" in="SourceGraphic"></feGaussianBlur>
        </filter>
        <circle id="path-17" cx="65.8170006" cy="65.8170006" r="65.8170006"></circle>
        <filter x="-15.9%" y="-15.9%" width="131.8%" height="131.8%" filterUnits="objectBoundingBox" id="filter-19">
            <feGaussianBlur stdDeviation="8.94600009" in="SourceGraphic"></feGaussianBlur>
        </filter>
        <linearGradient x1="50%" y1="0%" x2="50%" y2="100%" id="linearGradient-20">
            <stop stop-color="#CCCCCC" offset="0%"></stop>
            <stop stop-color="#777777" offset="100%"></stop>
        </linearGradient>
        <filter x="-18.2%" y="-17.8%" width="136.4%" height="135.7%" filterUnits="objectBoundingBox" id="filter-21">
            <feGaussianBlur stdDeviation="12.7800001" in="SourceGraphic"></feGaussianBlur>
        </filter>
        <circle id="path-22" cx="46.6470004" cy="46.6470004" r="46.6470004"></circle>
        <filter x="-16.4%" y="-16.4%" width="132.8%" height="132.8%" filterUnits="objectBoundingBox" id="filter-24">
            <feGaussianBlur stdDeviation="8.94600009" in="SourceGraphic"></feGaussianBlur>
        </filter>
        <filter x="-4.7%" y="-4.7%" width="109.4%" height="109.4%" filterUnits="objectBoundingBox" id="filter-25">
            <feGaussianBlur stdDeviation="2.55600002" in="SourceGraphic"></feGaussianBlur>
        </filter>
        <filter x="-12.1%" y="-12.1%" width="124.1%" height="124.1%" filterUnits="objectBoundingBox" id="filter-26">
            <feGaussianBlur stdDeviation="8.94600009" in="SourceGraphic"></feGaussianBlur>
        </filter>
        <radialGradient cx="50.5075786%" cy="40.3983801%" fx="50.5075786%" fy="40.3983801%" r="37.37968%" gradientTransform="translate(0.505076,0.403984),scale(0.166050,1.000000),rotate(90.000000),scale(1.000000,7.290929),translate(-0.505076,-0.403984)" id="radialGradient-27">
            <stop stop-color="#747474" stop-opacity="0.2" offset="0%"></stop>
            <stop stop-color="#8F8F8F" stop-opacity="0.0345052083" offset="79.8960093%"></stop>
            <stop stop-color="#979797" stop-opacity="0" offset="100%"></stop>
        </radialGradient>
        <filter x="-6.0%" y="-36.0%" width="112.0%" height="172.1%" filterUnits="objectBoundingBox" id="filter-28">
            <feGaussianBlur stdDeviation="3.44999993" in="SourceGraphic"></feGaussianBlur>
        </filter>
        <rect id="path-29" x="0" y="0" width="22.3776003" height="21.6672003"></rect>
    </defs>
    <g id="Hero/Error/Simple" stroke="none" stroke-width="1" fill="none" fill-rule="evenodd">
        <g id="Simple-Error">
            <g id="Group-3" opacity="0.253429324" transform="translate(0.943128, 0.711152)">
                <circle id="Oval" stroke="#E1E1E1" cx="185.556872" cy="180.788848" r="117.5"></circle>
                <circle id="Oval" stroke="#E1E1E1" cx="206.556872" cy="193.788848" r="117.5"></circle>
                <circle id="Oval" fill="#444444" cx="187.976874" cy="184.32085" r="81.7920008"></circle>
                <circle id="Oval" stroke="url(#linearGradient-1)" stroke-width="2.55600002" cx="187.976874" cy="184.32085" r="81.7920008"></circle>
                <g id="Internet-Explorer-10-01" transform="translate(150.056872, 142.288848)">
                    <mask id="mask-3" fill="white">
                        <use xlink:href="#path-2"></use>
                    </mask>
                    <g id="Clip-2"></g>
                    <path d="M25.0326164,32.0063115 C25.2878276,24.6754949 31.6428192,18.8058032 39.4512695,18.8058032 C47.2589418,18.8058032 53.614517,24.6754949 53.8695336,32.0063115 L25.0326164,32.0063115 Z M6.65040924,65.3073451 C4.4128375,63.0033686 4.01698786,57.3918441 8.95509062,47.1661176 C11.44729,54.3594533 16.4204064,60.3869355 22.8481488,64.2121848 C19.6513954,65.9785408 11.1646514,69.9557222 6.65040924,65.3073451 Z M65.0396909,5.11942502 C67.7872959,6.98108022 69.9910211,9.90469714 66.2064261,19.750789 C62.5766697,13.890471 57.1158898,9.29345401 50.6251227,6.76665691 C53.5777526,5.33502004 60.8895916,2.30692547 65.0396909,5.11942502 Z M71,36.6398469 C71,31.0050835 69.5488755,25.711093 67.003961,21.1111467 C77.8510194,-3.53405923 55.3815431,0.0755951065 54.1303859,0.321459357 C49.3700751,1.25648559 44.9659317,2.75803462 40.9035611,4.66109031 C40.3044374,4.62730595 39.7020067,4.60875384 39.0945185,4.60875384 C23.9335744,4.60875384 11.2428487,15.2248558 7.99493639,29.4564707 C15.9856527,20.4565502 21.5779286,16.8252192 24.9269916,15.372101 C24.3922542,15.8515265 23.8689935,16.33642 23.3542917,16.8250239 C23.1829189,16.9873061 23.0179654,17.1519316 22.8489269,17.3153854 C22.5094882,17.6430743 22.1708277,17.9713489 21.839948,18.3023576 C21.643093,18.4992052 21.4516846,18.6978104 21.2577475,18.896025 C20.9644102,19.1959833 20.6716566,19.495551 20.3851276,19.7970716 C20.1816589,20.0112996 19.9832478,20.2261135 19.783475,20.4407321 C19.5158145,20.7281922 19.2499047,21.0160428 18.9888579,21.3050651 C18.7861673,21.5296432 18.5865891,21.7540261 18.3875944,21.9791901 C18.140164,22.2588387 17.8950679,22.5384873 17.6530842,22.8187218 C17.4527279,23.0511113 17.2539277,23.2836962 17.0574618,23.5164763 C16.8281219,23.7881182 16.6018943,24.0597602 16.3780009,24.3314021 C16.1797843,24.5717983 15.9823458,24.811804 15.7884087,25.052005 C15.5787153,25.3117345 15.3736905,25.5710734 15.1688602,25.8300218 C14.9704491,26.0811588 14.7720379,26.3319052 14.5781008,26.5826515 C14.3936952,26.8212902 14.2143471,27.0591478 14.0336373,27.2972006 C13.8299741,27.5663038 13.6245603,27.8352117 13.4259546,28.102948 C13.284149,28.2945229 13.14779,28.484145 13.0087077,28.675134 C11.7478245,30.401847 10.5962618,32.0955569 9.55596509,33.7224791 L9.54818426,33.7343915 C9.2742991,34.1628475 9.00994546,34.5848592 8.75103839,35.0033557 L8.7088274,35.0717055 C8.44933677,35.4917643 8.19898861,35.9047928 7.95486512,36.3131345 L7.92860483,36.3562925 C7.27248647,37.4559443 6.66383117,38.5159532 6.1156718,39.5130802 C3.24201735,44.7412594 1.84321892,48.3938765 1.78272298,48.6106433 C-7.29147365,81.1793568 21.0291856,67.4258005 24.9810684,65.3727657 C29.2364035,67.4834097 34.026865,68.6711352 39.0945185,68.6711352 C52.9677356,68.6711352 64.7712523,59.7807698 69.1646971,47.3656992 L52.4005132,47.3656992 C49.9199851,51.5729267 45.1443072,54.4225305 39.6578505,54.4225305 C31.6192822,54.4225305 25.1032274,48.3081463 25.1032274,40.7654451 L70.7372025,40.7654451 C70.910326,39.4144611 71,38.0376994 71,36.6398469 L71,36.6398469 Z" id="Fill-1" fill="#E4E6E7" mask="url(#mask-3)"></path>
                </g>
                <g id="Group-2" transform="translate(88.292873, 87.192849)">
                    <path d="M98.9555394,197.911079 C153.607175,197.911079 197.911079,153.607175 197.911079,98.9555394 C197.911079,44.3039041 153.607175,0 98.9555394,0 C44.3039041,0 0,44.3039041 0,98.9555394 C0,153.607175 44.3039041,197.911079 98.9555394,197.911079 Z M98.9555394,188.811719 C49.3293418,188.811719 9.09935994,148.581737 9.09935994,98.9555394 C9.09935994,49.3293418 49.3293418,9.09935994 98.9555394,9.09935994 C148.581737,9.09935994 188.811719,49.3293418 188.811719,98.9555394 C188.811719,148.581737 148.581737,188.811719 98.9555394,188.811719 Z" id="Oval" fill="url(#linearGradient-4)"></path>
                    <path d="M98.9555394,197.911079 C153.607175,197.911079 197.911079,153.607175 197.911079,98.9555394 C197.911079,44.3039041 153.607175,0 98.9555394,0 C44.3039041,0 0,44.3039041 0,98.9555394 C0,153.607175 44.3039041,197.911079 98.9555394,197.911079 Z M98.9555394,188.811719 C49.3293418,188.811719 9.09935994,148.581737 9.09935994,98.9555394 C9.09935994,49.3293418 49.3293418,9.09935994 98.9555394,9.09935994 C148.581737,9.09935994 188.811719,49.3293418 188.811719,98.9555394 C188.811719,148.581737 148.581737,188.811719 98.9555394,188.811719 Z" id="Oval" stroke="url(#linearGradient-5)" stroke-width="2.27483999"></path>
                </g>
                <g id="Group-4" opacity="0.663562863" transform="translate(9.447539, 0.000000)">
                    <g id="Blur-Circle" transform="translate(178.151334, 48.474849)">
                        <g id="Group" transform="translate(11.880000, 11.880000)">
                            <mask id="mask-7" fill="white">
                                <use xlink:href="#path-6"></use>
                            </mask>
                            <use id="Mask" fill-opacity="0.9" fill="#ECECEC" xlink:href="#path-6"></use>
                            <g mask="url(#mask-7)" id="Oval">
                                <g transform="translate(-125.244001, 19.170000)">
                                    <circle fill="none" filter="url(#filter-8)" cx="130.356001" cy="99.6840009" r="81.7920008"></circle>
                                    <path d="M111.186001,222.372002 C172.592334,222.372002 222.372002,172.592334 222.372002,111.186001 C222.372002,49.7796683 172.592334,0 111.186001,0 C49.7796683,0 0,49.7796683 0,111.186001 C0,172.592334 49.7796683,222.372002 111.186001,222.372002 Z M111.186001,212.148002 C55.4262276,212.148002 10.2240001,166.945774 10.2240001,111.186001 C10.2240001,55.4262276 55.4262276,10.2240001 111.186001,10.2240001 C166.945774,10.2240001 212.148002,55.4262276 212.148002,111.186001 C212.148002,166.945774 166.945774,212.148002 111.186001,212.148002 Z" fill="url(#linearGradient-9)" fill-rule="evenodd" filter="url(#filter-10)"></path>
                                </g>
                            </g>
                        </g>
                        <circle id="Oval-Copy-3" stroke="url(#linearGradient-11)" stroke-width="1.41704641" transform="translate(58.527001, 58.527001) rotate(163.000000) translate(-58.527001, -58.527001) " cx="58.5270005" cy="58.5270005" r="46.6470004"></circle>
                    </g>
                    <g id="Blur-Circle" transform="translate(108.000000, 108.000000) rotate(-80.000000) translate(-108.000000, -108.000000) translate(15.000000, 15.000000)">
                        <g id="Group" transform="translate(26.838000, 26.838000)">
                            <mask id="mask-13" fill="white">
                                <use xlink:href="#path-12"></use>
                            </mask>
                            <use id="Mask" fill-opacity="0.9" fill="#ECECEC" xlink:href="#path-12"></use>
                            <g mask="url(#mask-13)" id="Oval">
                                <g transform="translate(-100.034138, 33.438083)">
                                    <circle fill="none" filter="url(#filter-14)" cx="96.0023908" cy="114.962083" r="84.3480008"></circle>
                                    <path d="M105.717405,211.351857 C163.947548,211.351857 211.152406,164.147 211.152406,105.916856 C211.152406,47.6867133 163.947548,0.481855415 105.717405,0.481855415 C47.4872619,0.481855415 0.282404082,47.6867133 0.282404082,105.916856 C0.282404082,164.147 47.4872619,211.351857 105.717405,211.351857 Z M101.952831,215.401566 C49.0163376,215.401566 6.10283043,172.488059 6.10283043,119.551565 C6.10283043,66.6150712 49.0163376,23.7015641 101.952831,23.7015641 C154.889325,23.7015641 197.802832,66.6150712 197.802832,119.551565 C197.802832,172.488059 154.889325,215.401566 101.952831,215.401566 Z" fill="url(#linearGradient-15)" fill-rule="evenodd" filter="url(#filter-16)"></path>
                                </g>
                            </g>
                        </g>
                        <circle id="Oval-Copy-3" stroke="url(#linearGradient-11)" stroke-width="1.41704641" transform="translate(92.655001, 92.655001) rotate(-51.000000) translate(-92.655001, -92.655001) " cx="92.6550009" cy="92.6550009" r="65.8170006"></circle>
                    </g>
                    <g id="Blur-Circle-Copy-2" transform="translate(263.444246, 238.724873) rotate(84.000000) translate(-263.444246, -238.724873) translate(186.944246, 162.224873)">
                        <g id="Group" transform="translate(10.602000, 10.602000)">
                            <mask id="mask-18" fill="white">
                                <use xlink:href="#path-17"></use>
                            </mask>
                            <use id="Mask" fill-opacity="0.9" fill="#ECECEC" xlink:href="#path-17"></use>
                            <g mask="url(#mask-18)" id="Oval">
                                <g transform="translate(-100.034138, 33.438083)">
                                    <circle fill="none" filter="url(#filter-19)" cx="96.0023908" cy="114.962083" r="84.3480008"></circle>
                                    <path d="M105.717405,211.351857 C163.947548,211.351857 211.152406,164.147 211.152406,105.916856 C211.152406,47.6867133 163.947548,0.481855415 105.717405,0.481855415 C47.4872619,0.481855415 0.282404082,47.6867133 0.282404082,105.916856 C0.282404082,164.147 47.4872619,211.351857 105.717405,211.351857 Z M101.952831,215.401566 C49.0163376,215.401566 6.10283043,172.488059 6.10283043,119.551565 C6.10283043,66.6150712 49.0163376,23.7015641 101.952831,23.7015641 C154.889325,23.7015641 197.802832,66.6150712 197.802832,119.551565 C197.802832,172.488059 154.889325,215.401566 101.952831,215.401566 Z" fill="url(#linearGradient-20)" fill-rule="evenodd" filter="url(#filter-21)"></path>
                                </g>
                            </g>
                        </g>
                        <circle id="Oval-Copy-3" stroke="url(#linearGradient-11)" stroke-width="1.41704641" transform="translate(76.419001, 76.419001) rotate(-80.000000) translate(-76.419001, -76.419001) " cx="76.4190007" cy="76.4190007" r="65.8170006"></circle>
                    </g>
                    <g id="Blur-Circle-Copy" transform="translate(122.649995, 247.172916) rotate(-170.000000) translate(-122.649995, -247.172916) translate(75.649995, 200.172916)">
                        <g id="Group">
                            <mask id="mask-23" fill="white">
                                <use xlink:href="#path-22"></use>
                            </mask>
                            <use id="Mask" fill-opacity="0.9" fill="#ECECEC" xlink:href="#path-22"></use>
                            <g mask="url(#mask-23)" id="Oval">
                                <g transform="translate(-116.298001, 12.780000)">
                                    <circle filter="url(#filter-24)" cx="121.410001" cy="106.074001" r="81.7920008"></circle>
                                    <circle filter="url(#filter-25)" transform="translate(121.410001, 106.074001) rotate(-106.000000) translate(-121.410001, -106.074001) " cx="121.410001" cy="106.074001" r="81.7920008"></circle>
                                    <path d="M111.642908,223.21087 C173.049241,223.21087 222.828909,173.431202 222.828909,112.024869 C222.828909,50.6185364 173.049241,0.838868114 111.642908,0.838868114 C50.2365756,0.838868114 0.456907358,50.6185364 0.456907358,112.024869 C0.456907358,173.431202 50.2365756,223.21087 111.642908,223.21087 Z M111.642908,212.98687 C55.883135,212.98687 10.6809075,167.784643 10.6809075,112.024869 C10.6809075,56.2650957 55.883135,11.0628682 111.642908,11.0628682 C167.402682,11.0628682 212.604909,56.2650957 212.604909,112.024869 C212.604909,167.784643 167.402682,212.98687 111.642908,212.98687 Z" filter="url(#filter-26)"></path>
                                </g>
                            </g>
                        </g>
                        <circle id="Oval-Copy-3" stroke="url(#linearGradient-11)" stroke-width="1.41704641" cx="46.6470004" cy="46.6470004" r="46.6470004"></circle>
                    </g>
                </g>
                <ellipse id="Oval" fill="url(#radialGradient-27)" filter="url(#filter-28)" cx="86.5" cy="348.925494" rx="86.5" ry="14.363354"></ellipse>
            </g>
            <g id="People/Person" transform="translate(51.000000, 204.000000)">
                <g id="Bottom/Standing/2" transform="translate(4.000000, 63.000000)">
                    <path d="M36.6370122,76.013879 C41.9417921,75.0881468 46.8060912,74.1081394 47.3297337,76.2291744 C47.8944462,78.5165649 45.7755602,79.1487245 43.9227274,80.1276057 C42.6875055,80.7801932 40.1318103,81.7124516 36.2556418,82.9243809 C33.1194252,83.6080717 31.0637388,83.6080717 30.0885828,82.9243809 C29.4450978,81.8639438 29.4450978,80.3787662 30.0885828,78.4688481 C32.2090371,77.2121679 33.9737033,76.46561 35.3825816,76.2291744 C35.5923809,76.1939662 35.8019733,76.1582939 36.0111234,76.1223479 Z M1.48774545,75.7601409 C3.64001247,74.4684984 5.43986413,73.9131246 6.88730041,74.0940194 C12.8077552,74.8339346 16.093299,73.330896 17.3254956,76.2823706 C17.8856469,77.6240983 16.9396858,78.0734799 15.4297975,78.6487135 C13.9447475,79.2144843 11.1017271,80.0294521 6.9007364,81.0936169 C3.78182684,81.4184305 1.79311875,81.1698896 0.934612132,80.3479941 C0.443741374,79.1782642 0.628119148,77.6489798 1.48774545,75.7601409 Z" id="Shoes" fill="#0071F2"></path>
                    <path d="M30.9524045,-4.26325641e-14 C35.6224952,14.6658752 39.6722945,31.722006 39.6722945,39.5342422 L39.6722945,39.5342422 L39.6720003,41.3214856 C39.6705291,44.2599436 39.661702,47.0097791 39.6087394,49.7627481 L39.5851133,50.8645573 C39.4107508,58.2171268 38.8876633,65.7737916 37.3184008,77.1708107 C37.3184008,78.0998182 36.7530989,78.661354 35.6224952,78.855418 C33.5219894,79.2159621 31.8162725,79.1189301 30.5053447,78.564322 C27.7747057,59.414824 28.9691608,52.4742135 25.0360979,40.8041226 C24.7435619,39.9361169 24.4393044,39.0986084 24.1242377,38.282408 C23.9183543,39.6521273 23.7000934,41.0327932 23.4656006,42.4464005 C21.4753505,54.4443457 16.5401994,63.9658321 8.54720039,74.9617071 C8.10575375,75.7144241 7.11492301,76.1810688 5.5747082,76.361641 C3.70423519,76.5809321 2.28757399,76.3955472 1.32472461,75.8054862 C7.75741807,57.7075132 9.13542402,53.7901339 9.13542402,39.5342422 L9.13501168,39.1102673 C9.12512818,34.0665818 8.93802808,30.5926221 8.62313847,27.0961771 L8.5417824,26.220676 C7.98204138,20.3685933 7.07877099,14.0854839 6.06080036,-4.26325641e-14 L6.06080036,-4.26325641e-14 Z" id="Pants" fill="#B2B3B7"></path>
                    <path d="M9.09783073,-4.26325641e-14 C13.5008225,16.9931255 17.9577043,24.786421 21.5714807,32.4140262 L21.8748433,33.0584201 C22.6713027,34.7617551 23.4244334,36.4695206 24.1242377,38.282408 C23.9183543,39.6521273 23.7000934,41.0327932 23.4656006,42.4464005 C21.4753505,54.4443457 16.5401994,63.9658321 8.54720039,74.9617071 C8.10575375,75.7144241 7.11492301,76.1810688 5.5747082,76.361641 C3.70423519,76.5809321 2.28757399,76.3955472 1.32472461,75.8054862 C7.75741807,57.7075132 9.13542402,53.7901339 9.13542402,39.5342422 L9.13501168,39.1102673 C9.12512818,34.0665818 8.93802808,30.5926221 8.62313847,27.0961771 L8.5417824,26.220676 C7.98204138,20.3685933 7.07877099,14.0854839 6.06080036,-4.26325641e-14 L6.06080036,-4.26325641e-14 L9.09783073,-4.26325641e-14 Z" id="Shadow" fill-opacity="0.15" fill="#000000"></path>
                </g>
                <g id="Body/4" transform="translate(0.000000, 21.000000)">
                    <path d="M24.125888,0.689158548 C28.5238155,0.689158548 29.3670993,0.797553598 30.0170535,0.933814819 L30.1304286,0.958133794 C30.6189535,1.06462746 31.1100484,1.18464649 33.1068288,1.28217991 C33.4657823,1.29971312 33.8074377,1.34112257 34.132363,1.40747565 L34.183618,1.39955856 L34.183618,1.39955856 C44.9575556,3.85077693 53.542712,18.77869 53.542712,25.044987 C53.542712,31.3112839 46.9122805,40.7520287 42.9818398,41.9532742 C41.9210961,41.2202117 41.100332,39.9658538 40.5195476,38.1902007 C43.7393009,32.5749624 45.15724,28.1932245 44.773365,25.044987 C44.496174,22.7716867 42.7673702,20.1472696 39.5869536,17.1717355 L39.586107,33.7780362 C39.586107,45.7821407 43.2567048,46.9129092 34.6410569,49.6795182 C26.025409,52.4461272 6.93138794,55.7039662 8.60115034,46.1098497 C9.52255571,44.365607 10.0231236,42.1635105 10.2700247,39.7053957 C5.34824829,35.6001223 0.076350233,29.3406253 0.076350233,25.400187 C0.076350233,19.2246379 8.41464841,4.6365294 18.9687596,1.86903928 C20.5298008,1.11120982 22.2586656,0.689158548 24.125888,0.689158548 Z M10.0054936,22.2791812 L9.91502937,22.4333536 C9.31555888,23.4810814 8.95911484,24.4700259 8.84569722,25.400187 C8.6810633,26.7503835 9.18500698,28.3678509 10.3575283,30.2525892 C10.2427287,27.5495514 10.0739032,24.8300183 10.0054936,22.2791812 Z" id="Jacket" fill="#DCF5EF"></path>
                    <path d="M10.0611472,17.2479692 C9.95891821,18.8008681 9.95775064,20.4988987 10.0054912,22.2790932 C9.35103785,23.3841208 8.96466675,24.4244935 8.84569722,25.400187 C8.68103428,26.7506215 9.18518463,28.368421 10.3581483,30.2535857 C10.4993517,33.5399631 10.5616978,36.8009882 10.2700867,39.7047787 C5.34824829,35.6001223 0.076350233,29.3406253 0.076350233,25.400187 C0.076350233,19.2252246 8.41306406,4.63930132 18.9657515,1.86982841 C13.8239832,4.37049934 10.5041395,10.5187442 10.0611472,17.2479692 Z" id="Shadow" fill-opacity="0.15" fill="#000000"></path>
                    <path d="M40.7245173,37.9904007 C37.9190257,39.4112007 36.4694351,40.2834579 36.4694351,41.812136 C36.4694351,43.0103267 37.7665574,45.4178617 39.86307,45.0094164 C41.9595825,44.6009711 42.4318084,43.2873759 43.2567048,41.812136 C42.3943736,39.4840445 41.8754486,38.7101663 40.7245173,37.9904007 Z" id="Hands" fill="#DBB59D"></path>
                </g>
                <g id="Head/Back/1" transform="translate(15.000000, 0.000000)">
                    <g id="Combined-Shape" transform="translate(1.000000, 0.000000)">
                        <mask id="mask-30" fill="white">
                            <use xlink:href="#path-29"></use>
                        </mask>
                        <g id="Mask"></g>
                        <path d="M13.3189595,2.37522659 C19.4777253,2.37522659 19.5070374,7.18669435 19.9331721,9.60178198 C20.4742971,12.6685689 19.5070374,17.4356721 17.8720409,18.3999846 C17.0087437,18.9091528 16.5337104,19.1396956 15.4409674,19.6298299 C13.9897545,20.2807509 14.2268137,23.4898468 14.2514049,25.1444035 L14.5632002,27.3504004 L6.03840008,27.3504004 L7.26590775,21.6297489 C7.55381321,20.1132128 8.5191197,16.4904955 7.92522666,15.854269 C6.18391778,13.9888371 5.36008601,12.782216 5.36008601,10.6560001 C5.36008601,7.62413916 6.64890009,2.37522659 13.3189595,2.37522659 Z" id="Head" fill="#DBB59D" mask="url(#mask-30)"></path>
                    </g>
                    <path d="M5.50668583,16.0720734 C6.07070459,17.4512121 7.20761267,19.2049602 9.21497832,19.2049602 C11.222344,19.2049602 14.3870328,17.7449072 14.3870328,15.0238689 C14.3870328,13.5102391 14.4692422,13.4290578 13.397337,12.0544789 C12.9508632,11.4819344 12.9359427,10.5795693 13.8826766,9.76553893 C14.8294104,8.95150853 16.1349612,10.3165499 16.1349612,11.8815632 C16.1349612,12.9249054 16.6587341,12.9249054 17.7062797,11.8815632 C16.5722297,7.96456847 17.1846954,6.18055533 19.5436766,6.52952376 C22.697923,6.64669756 19.3227173,0.288913808 12.8854109,0.491123679 C1.76078266,1.01457632 4.94266708,14.6929346 5.50668583,16.0720734 Z" id="Hair" fill="#3C3226"></path>
                </g>
            </g>
        </g>
    </g>
</svg>